# xmcd
#
# Track frame offsets:
#	150
#	9879
#	36639
#	59624
#	86793
#	117287
#	142852
#	163556
#	186644
#
# Disc length: 2739 seconds
#
# Revision: 0
# Processed by: cddbd v1.5.1PL0 Copyright (c) Steve Scherf et al.
# Submitted via: EasyCDDAExtractor 4.6.9.1
#
DISCID=7b0ab109
DTITLE=Depeche Mode - Somebody In Dublin - CD1
DYEAR=1993
DGENRE=live
TTITLE0=Intro
TTITLE1=Higher Love
TTITLE2=Policy Of Truth
TTITLE3=World In My Eyes
TTITLE4=Walking In My Shoes
TTITLE5=Behind The Wheel
TTITLE6=Halo
TTITLE7=Stripped
TTITLE8=Condemnation
EXTD=
EXTT0=
EXTT1=
EXTT2=
EXTT3=
EXTT4=
EXTT5=
EXTT6=
EXTT7=
EXTT8=
PLAYORDER=
